<svg width="461" height="399" viewBox="0 0 461 399" fill="none" xmlns="http://www.w3.org/2000/svg">
<path d="M460.476 197.418C461.03 198.34 461.047 199.489 460.52 200.428L350.569 396.586C350.03 397.547 349.008 398.136 347.906 398.118L116.463 394.509C115.418 394.493 114.457 393.934 113.926 393.034L0.415996 200.584C-0.139284 199.642 -0.138596 198.473 0.417786 197.532L113.926 5.59853C114.456 4.70259 115.412 4.14533 116.453 4.12615L340.272 0.000517134C341.345 -0.0192677 342.348 0.535985 342.9 1.45653L460.476 197.418ZM139.563 372.251C138.256 374.228 139.649 376.869 142.019 376.905L273.918 378.962C277.295 379.014 278.169 374.31 274.998 373.146L167.775 333.781C166.47 333.302 165.006 333.783 164.239 334.943L139.563 372.251ZM186.843 316.508C184.782 317.86 185.141 320.983 187.455 321.833L331.877 374.854C333.804 375.561 335.856 374.168 335.91 372.116L339.867 221.758C339.931 219.337 337.247 217.843 335.222 219.171L186.843 316.508ZM117.966 364.454C119.092 366.363 121.829 366.434 123.052 364.584L148.448 326.189C149.301 324.9 149.034 323.174 147.833 322.202L55.9246 247.829C53.3267 245.727 49.7557 248.807 51.4535 251.685L117.966 364.454ZM354.742 340.762C354.659 343.892 358.826 345.039 360.357 342.308L433.102 212.53C434.223 210.53 432.777 208.063 430.485 208.063H361.157C359.531 208.063 358.201 209.359 358.158 210.984L354.742 340.762ZM170.216 300.438C170.298 302.775 172.904 304.124 174.86 302.841L328.702 201.921C330.542 200.714 330.5 198.003 328.623 196.854L167.807 98.3944C165.768 97.1459 163.159 98.6682 163.242 101.058L170.216 300.438ZM26.9306 196.61C25.4815 197.821 25.4995 200.055 26.968 201.243L147.168 298.51C149.168 300.128 152.143 298.644 152.053 296.073L145.332 103.912C145.245 101.416 142.325 100.113 140.409 101.715L26.9306 196.61ZM357.71 187.26C357.814 188.837 359.123 190.063 360.704 190.063H429.773C432.105 190.063 433.545 187.519 432.345 185.52L354.77 56.228C353.151 53.5289 348.997 54.8275 349.204 57.9684L357.71 187.26ZM179.482 78.772C177.155 79.6598 176.861 82.8329 178.985 84.1335L334.406 179.289C336.481 180.559 339.125 178.961 338.966 176.533L329.054 25.8703C328.922 23.856 326.877 22.5448 324.991 23.2643L179.482 78.772ZM53.271 143.522C51.5549 146.424 55.1915 149.513 57.7778 147.35L140.371 78.2828C141.442 77.3866 141.754 75.8693 141.121 74.6236L121.84 36.6365C120.768 34.5252 117.788 34.4292 116.583 36.4672L53.271 143.522ZM139.28 21.7075C137.067 21.7483 135.658 24.0906 136.66 26.0647L156.604 65.359C157.299 66.7276 158.915 67.3512 160.349 66.8041L269.6 25.1284C272.74 23.9303 271.836 19.264 268.475 19.326L139.28 21.7075Z" fill="black"/>
<path d="M139.563 372.251C138.256 374.228 139.649 376.869 142.019 376.905L273.918 378.962C277.295 379.014 278.169 374.31 274.998 373.146L167.775 333.781C166.47 333.302 165.006 333.783 164.239 334.943L139.563 372.251Z" fill="black"/>
<path d="M26.9306 196.61C25.4815 197.821 25.4995 200.055 26.968 201.243L147.168 298.51C149.168 300.128 152.143 298.644 152.053 296.073L145.332 103.912C145.245 101.416 142.325 100.113 140.409 101.715L26.9306 196.61Z" fill="black"/>
</svg>
